<?xml version="1.0" encoding="UTF-8"?>
<svg width="320px" height="320px" viewBox="0 0 320 320" version="1.1" xmlns="http://www.w3.org/2000/svg" xmlns:xlink="http://www.w3.org/1999/xlink">
    <title>actor</title>
    <g id="actor" stroke="none" stroke-width="1" fill="none" fill-rule="evenodd">
        <rect id="蒙版" fill="#FFFFFF" opacity="0.3" x="-5.68434189e-14" y="5.68434189e-14" width="320" height="320"></rect>
        <path d="M-5.68434189e-14,271.547049 L96.5,218.644338 L104,200.845295 L109,198.373206 L110.5,182.057416 L101.5,146.45933 C99.1666667,146.45933 96.8333333,145.305688 94.5,142.998405 C91,139.53748 88,133.110048 86,125.69378 C84,118.277512 83.9064606,106.554994 85,102.950558 C86.0935394,99.3461222 88.5,99.4896332 92,98.5007974 C89.5,85.645933 85.5,70.3189793 87.5,57.9585327 C89.5,45.5980861 107.5,34.7208931 114.5,28.2934609 C121.5,21.8660287 124,17.9106858 130,16.4274322 C136,14.9441786 134,10 160,10 C186,10 191,11.9776715 197,14.9441786 C203,17.9106858 208,24.8325359 212.5,28.2934609 C217,31.754386 223,33.7320574 225,37.1929825 C227,40.6539075 224,48.5645933 227.5,54.4976077 C231,60.430622 236,65.8692185 236,73.2854864 C236,80.7017544 229.5,97.5119617 229.5,105.917065 C236,105.917065 237,111.355662 236,117.783094 C235,124.210526 228.5,143.492823 224,148.437002 C221,151.733121 217.666667,153.38118 214,153.38118 L208,179.585327 L208,196.395534 L214,199.362041 L222,220.127592 L320,270.063796 L320,320 L-5.68434189e-14,320 L-5.68434189e-14,271.547049 Z" id="路径-5" fill="#FFFFFF" opacity="0.5"></path>
    </g>
</svg>