<?xml version="1.0" encoding="UTF-8"?>
<svg width="320px" height="320px" viewBox="0 0 320 320" version="1.1" xmlns="http://www.w3.org/2000/svg" xmlns:xlink="http://www.w3.org/1999/xlink">
    <title>actress</title>
    <g id="actress" stroke="none" stroke-width="1" fill="none" fill-rule="evenodd">
        <rect id="蒙版" fill="#FFFFFF" opacity="0.3" x="0" y="0" width="320" height="320"></rect>
        <path d="M120.940625,26.3358684 C94.2224425,56.8518924 86.73125,62.2139934 84.228125,105.601493 C81.725,148.988993 95.075,185.701493 67.540625,209.898368 C78.109375,216.017118 91.459375,219.354618 107.590625,219.910868 C111.723512,212.678967 115.061012,207.950842 117.603125,205.726493 C121.416294,202.38997 127.615625,202.388993 127.615625,202.388993 C127.615625,219.910868 128,231.146486 118,241.146486 C74,264.146486 50,255.853514 0,276 C0,292.666667 0,307.382162 0,320.146486 L320,320.146486 C320,302.731903 320,288.065236 320,276.146486 C292,260.146486 246,266 212,241.146486 C205,232.146486 205.2125,217.407743 205.2125,202.388993 C211.33125,202.388993 215.503125,207.395243 217.728125,217.407743 C239.421875,217.407743 254.996875,212.401493 264.453125,202.388993 C251.103125,194.879618 246.096875,189.873368 246.096875,172.351493 C246.096875,154.829618 248.6,102.263993 246.096875,91.4171184 C243.59375,80.5702434 229.409375,37.1827434 211.8875,25.5014934 C201.281139,18.8502478 192.729537,13.1491802 165.174377,13.1491802 C137.619217,13.1491802 134.695569,10.6257358 120.940625,26.3358684 Z" id="路径-9" fill="#FFFFFF" opacity="0.5"></path>
    </g>
</svg>