<?xml version="1.0" encoding="UTF-8"?>
<svg width="640px" height="360px" viewBox="0 0 640 360" version="1.1" xmlns="http://www.w3.org/2000/svg" xmlns:xlink="http://www.w3.org/1999/xlink">
    <title>cover</title>
    <g id="cover" stroke="none" stroke-width="1" fill="none" fill-rule="evenodd">
        <rect id="蒙版" fill="#FFFFFF" opacity="0.300000012" x="0" y="0" width="640" height="360"></rect>
        <path d="M314,94 C360.391919,94 398,131.608081 398,178 C398,208.557062 381.683775,235.303266 357.28826,250.001675 L422,250 C425.313708,250 428,252.686292 428,256 C428,259.313708 425.313708,262 422,262 L314,262 C267.608081,262 230,224.391919 230,178 C230,131.608081 267.608081,94 314,94 Z M403.441257,238.498782 L404.466888,240.400986 L400.510464,240.400986 L400.510464,242.920084 C401.208796,244.817438 404.173351,243.902578 404.466888,243.562009 C404.555987,243.575116 404.645999,243.579485 404.736923,243.575116 L404.873995,243.562009 L405.642371,245.081717 C404.430607,246.227239 402.996567,246.8 401.34025,246.8 C399.227686,246.8 397.853447,245.842675 397.217533,243.928026 L397.147435,243.702857 L397.147435,240.400986 L396.403058,239.521586 L396.214459,239.521586 L396.214459,239.137995 L396.627065,238.498782 L403.441257,238.498782 Z M382.06442,238 C384.17406,238 385.941995,238.386146 387.368224,239.158437 C387.119276,239.571003 386.868667,240.001908 386.616396,240.451151 C384.898292,239.801352 379.937204,238.90477 379.701892,242.328533 C379.701892,243.693167 380.394105,244.548533 381.778531,244.89463 L381.981015,244.940609 L383.693158,244.940609 L383.693158,243.896529 L383.116619,243.26845 L382.612977,243.26845 L383.221865,242.203068 L387.097659,242.203068 L387.368224,242.527003 L387.368224,245.686253 C386.426564,246.287156 384.763874,246.657918 382.380157,246.79854 C378.842814,246.79854 376,245.264804 376,242.527003 C376,239.789202 378.899959,238 382.06442,238 Z M409.212449,238.469528 L411.668197,242.593594 L413.053863,240.070377 L412.699121,239.470169 L412.323618,239.470169 L412.895223,238.469528 L417.559846,238.469528 L412.895223,246.434922 L410.26696,246.434922 L405.776549,238.660124 L405.776549,238.469528 L409.212449,238.469528 Z M393.787591,238.478393 L393.980713,238.747469 L393.980713,246.328751 L390.419936,246.328751 L390.419936,240.226764 L389.754391,239.491341 L389.407898,239.491341 L389.950725,238.478393 L393.787591,238.478393 Z M314,206 C305.715729,206 299,212.715729 299,221 C299,229.284271 305.715729,236 314,236 C322.284271,236 329,229.284271 329,221 C329,212.715729 322.284271,206 314,206 Z M271,163 C262.715729,163 256,169.715729 256,178 C256,186.284271 262.715729,193 271,193 C279.284271,193 286,186.284271 286,178 C286,169.715729 279.284271,163 271,163 Z M357,163 C348.715729,163 342,169.715729 342,178 C342,186.284271 348.715729,193 357,193 C365.284271,193 372,186.284271 372,178 C372,169.715729 365.284271,163 357,163 Z M314,168 C308.477153,168 304,172.477153 304,178 C304,183.522847 308.477153,188 314,188 C319.522847,188 324,183.522847 324,178 C324,172.477153 319.522847,168 314,168 Z M314,120 C305.715729,120 299,126.715729 299,135 C299,143.284271 305.715729,150 314,150 C322.284271,150 329,143.284271 329,135 C329,126.715729 322.284271,120 314,120 Z" id="placeholder_cover" fill="#FFFFFF" opacity="0.5"></path>
    </g>
</svg>